<?xml version="1.0" encoding="UTF-8"?>
<svg width="1840px" height="833px" viewBox="0 0 1840 833" version="1.1" xmlns="http://www.w3.org/2000/svg" xmlns:xlink="http://www.w3.org/1999/xlink">
    <!-- Generator: Sketch 64 (93537) - https://sketch.com -->
    <title>Desktop HD</title>
    <desc>Created with Sketch.</desc>
    <g id="Desktop-HD" stroke="none" stroke-width="1" fill="none" fill-rule="evenodd">
        <rect fill="#000000" x="0" y="0" width="1840" height="833"></rect>
        <g id="Group" transform="translate(100.000000, 430.000000)">
            <rect id="Rectangle" fill="#303A52" x="0" y="0" width="450" height="403"></rect>
            <rect id="Rectangle" fill="#FFFFFF" x="65" y="329" width="101" height="6"></rect>
            <rect id="Rectangle" fill="#FFFFFF" x="172" y="329" width="131" height="6"></rect>
            <rect id="Rectangle" fill="#FFFFFF" x="109" y="340" width="74" height="6"></rect>
            <rect id="Rectangle" fill="#FFFFFF" x="188" y="340" width="74" height="6"></rect>
            <rect id="Rectangle" fill="#FFFFFF" x="267" y="340" width="74" height="6"></rect>
            <rect id="Rectangle" fill="#FFFFFF" x="309" y="329" width="82" height="6"></rect>
            <path d="M74,287.171875 L390,287.171875 L390,116 L297.038719,173.539062 C264.970756,140.661042 242.045657,129.395417 228.263423,139.742188 C207.590071,155.262344 184.22327,197.09375 164.100284,201.585938 C143.977299,206.078125 97.6790706,197.09375 88.7235739,216.539062 C82.7532428,229.502604 77.8453848,253.046875 74,287.171875 Z" id="Path" fill="#574B90"></path>
            <path d="M68.0859375,315.132812 L390.085938,315.132812 L390.085938,143.960938 L295.359568,201.5 C262.68272,168.621979 239.322335,157.356354 225.278413,167.703125 C204.212529,183.223281 180.402054,225.054687 159.896987,229.546875 C139.391919,234.039062 92.2146107,225.054688 83.0890729,244.5 C77.0053811,257.463542 72.0043359,281.007812 68.0859375,315.132812 Z" id="Path" fill="#FC85AF"></path>
            <g id="Bar-Data-point" transform="translate(385.000000, 142.000000)" fill="#FFFFFF">
                <rect id="Rectangle" x="0" y="0" width="10" height="3"></rect>
            </g>
            <g id="Bar-Data-point" transform="translate(385.000000, 115.000000)" fill="#FFFFFF">
                <rect id="Rectangle" x="0" y="0" width="10" height="3"></rect>
            </g>
            <g id="Bar-Data-point" transform="translate(291.000000, 195.000000)" fill="#FFFFFF">
                <rect id="Rectangle" x="0" y="0" width="10" height="3"></rect>
            </g>
            <g id="Bar-Data-point" transform="translate(293.000000, 165.000000)" fill="#FFFFFF">
                <rect id="Rectangle" x="0" y="0" width="10" height="3"></rect>
            </g>
            <g id="Bar-Data-point" transform="translate(235.000000, 131.000000)" fill="#FFFFFF">
                <rect id="Rectangle" x="0" y="0" width="10" height="3"></rect>
            </g>
            <g id="Bar-Data-point" transform="translate(231.000000, 160.000000)" fill="#FFFFFF">
                <rect id="Rectangle" x="0" y="0" width="10" height="3"></rect>
            </g>
            <g id="Bar-Data-point" transform="translate(91.000000, 228.000000)" fill="#FFFFFF">
                <rect id="Rectangle" x="0" y="0" width="10" height="3"></rect>
            </g>
            <g id="Bar-Data-point" transform="translate(96.000000, 202.000000)" fill="#FFFFFF">
                <rect id="Rectangle" x="0" y="0" width="10" height="3"></rect>
            </g>
            <g id="Bar-Data-point" transform="translate(161.000000, 195.000000)" fill="#FFFFFF">
                <rect id="Rectangle" x="0" y="0" width="10" height="3"></rect>
            </g>
            <g id="Bar-Data-point" transform="translate(161.000000, 221.000000)" fill="#FFFFFF">
                <rect id="Rectangle" x="0" y="0" width="10" height="3"></rect>
            </g>
        </g>
        <g id="Group" transform="translate(100.000000, -85.000000)">
            <rect id="Rectangle" fill="#303A52" x="0" y="0" width="450" height="403"></rect>
            <rect id="Rectangle" fill="#FFFFFF" x="65" y="329" width="101" height="6"></rect>
            <rect id="Rectangle" fill="#FFFFFF" x="172" y="329" width="131" height="6"></rect>
            <rect id="Rectangle" fill="#FFFFFF" x="109" y="340" width="74" height="6"></rect>
            <rect id="Rectangle" fill="#FFFFFF" x="188" y="340" width="74" height="6"></rect>
            <rect id="Rectangle" fill="#FFFFFF" x="267" y="340" width="74" height="6"></rect>
            <rect id="Rectangle" fill="#FFFFFF" x="309" y="329" width="82" height="6"></rect>
            <g id="Bar-Data-point" transform="translate(293.000000, 165.000000)" fill="#FFFFFF">
                <rect id="Rectangle" x="0" y="0" width="10" height="3"></rect>
            </g>
        </g>
        <g id="Group-3" transform="translate(712.000000, 51.000000)">
            <g id="Group">
                <rect id="Rectangle" fill="#303A52" x="0" y="0" width="394" height="352"></rect>
                <rect id="Rectangle" fill="#FFFFFF" x="31.52" y="124.903226" width="25.3911111" height="4.36724566"></rect>
                <rect id="Rectangle" fill="#FFFFFF" x="31.52" y="159.841191" width="25.3911111" height="4.36724566"></rect>
                <rect id="Rectangle" fill="#FFFFFF" x="31.52" y="178.183623" width="25.3911111" height="4.36724566"></rect>
                <rect id="Rectangle" fill="#FFFFFF" x="31.52" y="196.526055" width="17.5111111" height="4.36724566"></rect>
                <rect id="Rectangle" fill="#FFFFFF" x="31.52" y="214.868486" width="21.8888889" height="4.36724566"></rect>
                <rect id="Rectangle" fill="#FFFFFF" x="31.52" y="233.210918" width="17.5111111" height="4.36724566"></rect>
                <rect id="Rectangle" fill="#FFFFFF" x="31.52" y="251.55335" width="7.00444444" height="4.36724566"></rect>
                <rect id="Rectangle" fill="#FFFFFF" x="31.52" y="143.245658" width="13.1333333" height="2.62034739"></rect>
                <rect id="Rectangle" fill="#FFFFFF" x="56.9111111" y="287.364764" width="88.4311111" height="5.24069479"></rect>
                <rect id="Rectangle" fill="#FFFFFF" x="150.595556" y="287.364764" width="114.697778" height="5.24069479"></rect>
                <rect id="Rectangle" fill="#FFFFFF" x="95.4355556" y="296.972705" width="64.7911111" height="5.24069479"></rect>
                <rect id="Rectangle" fill="#FFFFFF" x="164.604444" y="296.972705" width="64.7911111" height="5.24069479"></rect>
                <rect id="Rectangle" fill="#FFFFFF" x="233.773333" y="296.972705" width="64.7911111" height="5.24069479"></rect>
                <rect id="Rectangle" fill="#FFFFFF" x="270.546667" y="287.364764" width="71.7955556" height="5.24069479"></rect>
            </g>
            <polygon id="Rectangle" fill="#FFFFFF" points="109 233.190063 129 217 129 266 109 266"></polygon>
            <polygon id="Rectangle" fill="#FFFFFF" points="140 213.539194 160 201 160 266 140 266"></polygon>
            <polygon id="Rectangle" fill="#FFFFFF" points="169.272917 200 189 217.089377 188.727083 266 169 266"></polygon>
            <polygon id="Rectangle" fill="#FFFFFF" points="199 217 219 232.939697 219 266 199 266"></polygon>
            <polygon id="Rectangle" fill="#FFFFFF" points="228 233.625 248 217 248 266 228 266"></polygon>
            <polygon id="Rectangle" fill="#FFFFFF" points="258 213.852279 278 191 278 266 258 266"></polygon>
            <polygon id="Rectangle" fill="#FC85AF" transform="translate(184.168506, 198.129349) rotate(-29.000000) translate(-184.168506, -198.129349) " points="82.1111032 177.085193 184.744495 163.960037 210.834794 221.638622 285.886763 212.031893 286.225909 218.543441 204.925838 232.29866 179.1552 174.043393 82.4067803 185.827204"></polygon>
        </g>
        <g id="Group" transform="translate(705.000000, 512.000000)">
            <rect id="Rectangle" fill="#303A52" x="0" y="0" width="401" height="359"></rect>
            <rect id="Rectangle" fill="#FFFFFF" x="58" y="294" width="90" height="5"></rect>
            <rect id="Rectangle" fill="#FFFFFF" x="153" y="294" width="117" height="5"></rect>
            <rect id="Rectangle" fill="#FFFFFF" x="98" y="303" width="65" height="5"></rect>
            <rect id="Rectangle" fill="#FFFFFF" x="168" y="303" width="65" height="5"></rect>
            <rect id="Rectangle" fill="#FFFFFF" x="238" y="303" width="65" height="5"></rect>
            <rect id="Rectangle" fill="#FFFFFF" x="275" y="294" width="73" height="5"></rect>
        </g>
        <rect id="Rectangle" fill="#722CFD" x="765" y="600" width="34" height="32"></rect>
        <rect id="Rectangle" fill="#FC85AF" x="799" y="600" width="122" height="32"></rect>
        <rect id="Rectangle" fill="#FC85AF" x="799" y="650" width="106" height="33"></rect>
        <rect id="Rectangle" fill="#9E579D" x="921" y="600" width="30" height="32"></rect>
        <rect id="Rectangle" fill="#9E579D" x="905" y="650" width="20" height="33"></rect>
        <rect id="Rectangle" fill="#9E579D" x="852" y="701" width="13" height="33"></rect>
        <rect id="Rectangle" fill="#574B90" x="865" y="701" width="40" height="33"></rect>
        <rect id="Rectangle" fill="#574B90" x="925" y="650" width="67" height="33"></rect>
        <rect id="Rectangle" fill="#574B90" x="897" y="751" width="8" height="34"></rect>
        <rect id="Rectangle" fill="#574B90" x="951" y="600" width="7" height="32"></rect>
        <rect id="Rectangle" fill="#574B90" x="905" y="701" width="81" height="33"></rect>
        <rect id="Rectangle" fill="#9E579D" x="812" y="751" width="85" height="34"></rect>
        <rect id="Rectangle" fill="#FC85AF" x="799" y="701" width="53" height="33"></rect>
        <rect id="Rectangle" fill="#FC85AF" x="799" y="751" width="13" height="34"></rect>
        <rect id="Rectangle" fill="#722CFD" x="765" y="650" width="34" height="33"></rect>
        <rect id="Rectangle" fill="#722CFD" x="765" y="701" width="34" height="33"></rect>
        <rect id="Rectangle" fill="#722CFD" x="765" y="751" width="34" height="34"></rect>
        <g id="Group-2" transform="translate(325.500000, 100.000000) rotate(-90.000000) translate(-325.500000, -100.000000) translate(198.000000, -4.000000)">
            <rect id="Rectangle" fill="#722CFD" x="0" y="0" width="37" height="37"></rect>
            <rect id="Rectangle" fill="#FC85AF" x="37" y="0" width="138" height="37"></rect>
            <rect id="Rectangle" fill="#FC85AF" x="37" y="57" width="120" height="37"></rect>
            <rect id="Rectangle" fill="#9E579D" x="175" y="0" width="32" height="37"></rect>
            <rect id="Rectangle" fill="#9E579D" x="157" y="57" width="21" height="37"></rect>
            <rect id="Rectangle" fill="#9E579D" x="97" y="114" width="15" height="37"></rect>
            <rect id="Rectangle" fill="#574B90" x="112" y="114" width="45" height="37"></rect>
            <rect id="Rectangle" fill="#574B90" x="178" y="57" width="77" height="37"></rect>
            <rect id="Rectangle" fill="#574B90" x="148" y="171" width="9" height="37"></rect>
            <rect id="Rectangle" fill="#574B90" x="207" y="0" width="9" height="37"></rect>
            <rect id="Rectangle" fill="#574B90" x="157" y="114" width="91" height="37"></rect>
            <rect id="Rectangle" fill="#9E579D" x="52" y="171" width="96" height="37"></rect>
            <rect id="Rectangle" fill="#FC85AF" x="37" y="114" width="60" height="37"></rect>
            <rect id="Rectangle" fill="#FC85AF" x="37" y="171" width="15" height="37"></rect>
            <rect id="Rectangle" fill="#722CFD" x="0" y="57" width="37" height="37"></rect>
            <rect id="Rectangle" fill="#722CFD" x="0" y="114" width="37" height="37"></rect>
            <rect id="Rectangle" fill="#722CFD" x="0" y="171" width="37" height="37"></rect>
        </g>
        <g id="Group" transform="translate(1274.000000, 430.000000)">
            <rect id="Rectangle" fill="#303A52" x="0" y="0" width="450" height="403"></rect>
            <rect id="Rectangle" fill="#FFFFFF" x="65" y="329" width="101" height="6"></rect>
            <rect id="Rectangle" fill="#FFFFFF" x="172" y="329" width="131" height="6"></rect>
            <rect id="Rectangle" fill="#FFFFFF" x="109" y="340" width="74" height="6"></rect>
            <rect id="Rectangle" fill="#FFFFFF" x="188" y="340" width="74" height="6"></rect>
            <rect id="Rectangle" fill="#FFFFFF" x="267" y="340" width="74" height="6"></rect>
            <rect id="Rectangle" fill="#FFFFFF" x="309" y="329" width="82" height="6"></rect>
            <g id="Bar-Data-point" transform="translate(293.000000, 165.000000)" fill="#FFFFFF">
                <rect id="Rectangle" x="0" y="0" width="10" height="3"></rect>
            </g>
        </g>
        <g id="Group-2" transform="translate(1499.500000, 615.000000) rotate(-90.000000) translate(-1499.500000, -615.000000) translate(1372.000000, 511.000000)">
            <rect id="Rectangle" fill="#722CFD" x="0" y="0" width="37" height="37"></rect>
            <rect id="Rectangle" fill="#FC85AF" x="37" y="0" width="138" height="37"></rect>
            <rect id="Rectangle" fill="#FC85AF" x="37" y="57" width="120" height="37"></rect>
            <rect id="Rectangle" fill="#9E579D" x="175" y="0" width="32" height="37"></rect>
            <rect id="Rectangle" fill="#9E579D" x="157" y="57" width="21" height="37"></rect>
            <rect id="Rectangle" fill="#9E579D" x="97" y="114" width="15" height="37"></rect>
            <rect id="Rectangle" fill="#574B90" x="112" y="114" width="45" height="37"></rect>
            <rect id="Rectangle" fill="#574B90" x="178" y="57" width="77" height="37"></rect>
            <rect id="Rectangle" fill="#574B90" x="148" y="171" width="9" height="37"></rect>
            <rect id="Rectangle" fill="#574B90" x="207" y="0" width="9" height="37"></rect>
            <rect id="Rectangle" fill="#574B90" x="157" y="114" width="91" height="37"></rect>
            <rect id="Rectangle" fill="#9E579D" x="52" y="171" width="96" height="37"></rect>
            <rect id="Rectangle" fill="#FC85AF" x="37" y="114" width="60" height="37"></rect>
            <rect id="Rectangle" fill="#FC85AF" x="37" y="171" width="15" height="37"></rect>
            <rect id="Rectangle" fill="#722CFD" x="0" y="57" width="37" height="37"></rect>
            <rect id="Rectangle" fill="#722CFD" x="0" y="114" width="37" height="37"></rect>
            <rect id="Rectangle" fill="#722CFD" x="0" y="171" width="37" height="37"></rect>
        </g>
        <g id="Group" transform="translate(1274.000000, -85.000000)">
            <rect id="Rectangle" fill="#303A52" x="0" y="0" width="450" height="403"></rect>
            <rect id="Rectangle" fill="#FFFFFF" x="65" y="329" width="101" height="6"></rect>
            <rect id="Rectangle" fill="#FFFFFF" x="172" y="329" width="131" height="6"></rect>
            <rect id="Rectangle" fill="#FFFFFF" x="109" y="340" width="74" height="6"></rect>
            <rect id="Rectangle" fill="#FFFFFF" x="188" y="340" width="74" height="6"></rect>
            <rect id="Rectangle" fill="#FFFFFF" x="267" y="340" width="74" height="6"></rect>
            <rect id="Rectangle" fill="#FFFFFF" x="309" y="329" width="82" height="6"></rect>
            <path d="M74,287.171875 L390,287.171875 L390,116 L297.038719,173.539062 C264.970756,140.661042 242.045657,129.395417 228.263423,139.742188 C207.590071,155.262344 184.22327,197.09375 164.100284,201.585938 C143.977299,206.078125 97.6790706,197.09375 88.7235739,216.539062 C82.7532428,229.502604 77.8453848,253.046875 74,287.171875 Z" id="Path" fill="#574B90"></path>
            <path d="M68.0859375,315.132812 L390.085938,315.132812 L390.085938,143.960938 L295.359568,201.5 C262.68272,168.621979 239.322335,157.356354 225.278413,167.703125 C204.212529,183.223281 180.402054,225.054687 159.896987,229.546875 C139.391919,234.039062 92.2146107,225.054688 83.0890729,244.5 C77.0053811,257.463542 72.0043359,281.007812 68.0859375,315.132812 Z" id="Path" fill="#FC85AF"></path>
            <g id="Bar-Data-point" transform="translate(385.000000, 142.000000)" fill="#FFFFFF">
                <rect id="Rectangle" x="0" y="0" width="10" height="3"></rect>
            </g>
            <g id="Bar-Data-point" transform="translate(385.000000, 115.000000)" fill="#FFFFFF">
                <rect id="Rectangle" x="0" y="0" width="10" height="3"></rect>
            </g>
            <g id="Bar-Data-point" transform="translate(291.000000, 195.000000)" fill="#FFFFFF">
                <rect id="Rectangle" x="0" y="0" width="10" height="3"></rect>
            </g>
            <g id="Bar-Data-point" transform="translate(293.000000, 165.000000)" fill="#FFFFFF">
                <rect id="Rectangle" x="0" y="0" width="10" height="3"></rect>
            </g>
            <g id="Bar-Data-point" transform="translate(235.000000, 131.000000)" fill="#FFFFFF">
                <rect id="Rectangle" x="0" y="0" width="10" height="3"></rect>
            </g>
            <g id="Bar-Data-point" transform="translate(231.000000, 160.000000)" fill="#FFFFFF">
                <rect id="Rectangle" x="0" y="0" width="10" height="3"></rect>
            </g>
            <g id="Bar-Data-point" transform="translate(91.000000, 228.000000)" fill="#FFFFFF">
                <rect id="Rectangle" x="0" y="0" width="10" height="3"></rect>
            </g>
            <g id="Bar-Data-point" transform="translate(96.000000, 202.000000)" fill="#FFFFFF">
                <rect id="Rectangle" x="0" y="0" width="10" height="3"></rect>
            </g>
            <g id="Bar-Data-point" transform="translate(161.000000, 195.000000)" fill="#FFFFFF">
                <rect id="Rectangle" x="0" y="0" width="10" height="3"></rect>
            </g>
            <g id="Bar-Data-point" transform="translate(161.000000, 221.000000)" fill="#FFFFFF">
                <rect id="Rectangle" x="0" y="0" width="10" height="3"></rect>
            </g>
        </g>
    </g>
</svg>