<?xml version="1.0" encoding="UTF-8"?>
<svg width="73px" height="74px" viewBox="0 0 73 74" version="1.1" xmlns="http://www.w3.org/2000/svg" xmlns:xlink="http://www.w3.org/1999/xlink">
    <!-- Generator: Sketch 60.1 (88133) - https://sketch.com -->
    <title>BNNY</title>
    <desc>Created with Sketch.</desc>
    <g id="BNNY" stroke="none" stroke-width="1" fill="none" fill-rule="evenodd">
        <ellipse id="Oval" fill="#E8E8E8" cx="36.5" cy="37" rx="36.5" ry="37"></ellipse>
        <g id="BNNY-logo" transform="translate(11.000000, 26.000000)" fill="#212021">
            <g transform="translate(0.000000, 0.000000)">
                <path d="M2.68386456,21.4865928 L1.21290033,18.9610443 L0.716127323,17.9926993 L0.69677253,17.9926993 L0.69677253,21.4865928 L0,21.4865928 L0,16.9196684 L0.812901286,16.9196684 L2.28386552,19.4452168 L2.78063852,20.4135618 L2.79999332,20.4135618 L2.79999332,16.9196684 L3.49676585,16.9196684 L3.49676585,21.4865928 L2.68386456,21.4865928 Z M7.52134541,21.4865928 L4.61836999,21.4865928 L4.61836999,16.9196684 L7.52134541,16.9196684 L7.52134541,17.5739555 L5.35223178,17.5739555 L5.35223178,18.8432726 L7.32002049,18.8432726 L7.32002049,19.4975598 L5.35223178,19.4975598 L5.35223178,20.8323056 L7.52134541,20.8323056 L7.52134541,21.4865928 Z M9.46410396,21.4865928 L9.46410396,17.5739555 L8.11513583,17.5739555 L8.11513583,16.9196684 L11.545925,16.9196684 L11.545925,17.5739555 L10.1969568,17.5739555 L10.1969568,21.4865928 L9.46410396,21.4865928 Z M13.8507516,21.4865928 L13.020482,21.4865928 L11.9417853,16.9196684 L12.6936042,16.9196684 L13.1577707,19.1180732 L13.4781109,20.6360195 L13.4977236,20.6360195 L13.8638267,19.1180732 L14.4064438,16.9196684 L15.2301759,16.9196684 L15.7662555,19.1180732 L16.1258211,20.6294766 L16.1454337,20.6294766 L16.4788491,19.1180732 L16.9560907,16.9196684 L17.6817594,16.9196684 L16.5572998,21.4865928 L15.7270301,21.4865928 L15.1451877,19.1246161 L14.8052348,17.7375273 L14.7921596,17.7375273 L14.4456692,19.1246161 L13.8507516,21.4865928 Z M20.0239327,21.5527801 C18.8470923,21.5527801 18.0776197,20.7326808 18.0776197,19.2031306 C18.0776197,17.6735803 18.8470923,16.8534811 20.0239327,16.8534811 C21.2007732,16.8534811 21.9702458,17.6735803 21.9702458,19.2031306 C21.9702458,20.7326808 21.2007732,21.5527801 20.0239327,21.5527801 Z M20.0569211,20.890907 C20.7694696,20.890907 21.2445019,20.3845741 21.2445019,19.5601602 L21.2445019,18.8461009 C21.2445019,18.0216871 20.7694696,17.5153542 20.0569211,17.5153542 C19.3443726,17.5153542 18.8693402,18.0216871 18.8693402,18.8461009 L18.8693402,19.5601602 C18.8693402,20.3845741 19.3443726,20.890907 20.0569211,20.890907 Z M23.6939193,19.641503 L23.6939193,21.4865928 L22.9598965,21.4865928 L22.9598965,16.9196684 L24.9151253,16.9196684 C25.7270975,16.9196684 26.2272723,17.449641 26.2272723,18.2936714 C26.2272723,18.9414157 25.9219708,19.3928739 25.3438466,19.5629885 L26.3247089,21.4865928 L25.506241,21.4865928 L24.5968323,19.641503 L23.6939193,19.641503 Z M23.6196636,19.0376623 L24.8028623,19.0376623 C25.1775419,19.0376623 25.4010349,18.8343301 25.4010349,18.4670204 L25.4010349,18.1521834 C25.4010349,17.7848737 25.1775419,17.5815415 24.8028623,17.5815415 L23.6196636,17.5815415 L23.6196636,19.0376623 Z M29.9251186,21.4865928 L28.5439903,19.3536166 L27.9185737,20.0733325 L27.9185737,21.4865928 L27.1824062,21.4865928 L27.1824062,16.9196684 L27.9185737,16.9196684 L27.9185737,19.2358449 L27.9446327,19.2358449 L28.5961083,18.4049002 L29.8208825,16.9196684 L30.6808304,16.9196684 L29.058656,18.8432726 L30.8111255,21.4865928 L29.9251186,21.4865928 Z M34.8027167,21.5527801 C33.6258762,21.5527801 32.8564036,20.7326808 32.8564036,19.2031306 C32.8564036,17.6735803 33.6258762,16.8534811 34.8027167,16.8534811 C35.9795571,16.8534811 36.7490298,17.6735803 36.7490298,19.2031306 C36.7490298,20.7326808 35.9795571,21.5527801 34.8027167,21.5527801 Z M34.7697283,20.890907 C35.4822768,20.890907 35.9573092,20.3845741 35.9573092,19.5601602 L35.9573092,18.8461009 C35.9573092,18.0216871 35.4822768,17.5153542 34.7697283,17.5153542 C34.0571798,17.5153542 33.5821475,18.0216871 33.5821475,18.8461009 L33.5821475,19.5601602 C33.5821475,20.3845741 34.0571798,20.890907 34.7697283,20.890907 Z M38.4079809,21.4865928 L37.6727038,21.4865928 L37.6727038,16.9196684 L40.5097025,16.9196684 L40.5097025,17.5739555 L38.4079809,17.5739555 L38.4079809,18.8432726 L40.2754549,18.8432726 L40.2754549,19.4975598 L38.4079809,19.4975598 L38.4079809,21.4865928 Z M45.5687287,21.4865928 L44.0977645,18.9610443 L43.6009915,17.9926993 L43.5816367,17.9926993 L43.5816367,21.4865928 L42.8848642,21.4865928 L42.8848642,16.9196684 L43.6977655,16.9196684 L45.1687297,19.4452168 L45.6655027,20.4135618 L45.6848575,20.4135618 L45.6848575,16.9196684 L46.38163,16.9196684 L46.38163,21.4865928 L45.5687287,21.4865928 Z M49.3508039,21.4865928 L48.6115321,21.4865928 L48.6115321,19.6873031 L47.0413972,16.9196684 L47.8853447,16.9196684 L48.9975236,18.9545015 L49.0171502,18.9545015 L50.1227869,16.9196684 L50.9340233,16.9196684 L49.3508039,19.6742173 L49.3508039,21.4865928 Z" id="NETWORK-OF-NY"></path>
                <polygon id="Rectangle-10" points="0 12.9484298 51 12.9484298 51 14.7354871 0 14.7354871"></polygon>
                <path d="M0,11.8232455 L0,0.174278924 L5.3475733,0.174278924 C7.25150806,0.174278924 8.41042487,1.35920246 8.41042487,3.16162135 C8.41042487,4.93066212 7.40051165,5.59822468 6.34093056,5.66498093 L6.34093056,5.76511532 C7.35084379,5.78180438 8.84087969,6.49943413 8.84087969,8.48543273 C8.84087969,10.3546079 7.56607119,11.8232455 5.86080788,11.8232455 L0,11.8232455 Z M2.17723157,6.85919724 L2.17723157,9.97000082 L5.21216041,9.97000082 C6.03686934,9.97000082 6.5316947,9.52084736 6.5316947,8.70571701 L6.5316947,8.14011636 C6.5316947,7.32498601 6.03686934,6.85919724 5.21216041,6.85919724 L2.17723157,6.85919724 Z M2.17723157,2.09371092 L2.17723157,5.07213987 L4.87703183,5.07213987 C5.67206504,5.07213987 6.13583441,4.60624037 6.13583441,3.84083405 L6.13583441,3.32501674 C6.13583441,2.54297115 5.67206504,2.09371092 4.87703183,2.09371092 L2.17723157,2.09371092 Z M17.7477361,11.8232455 L11.0181113,11.8232455 L11.0181113,0.174278924 L13.2006923,0.174278924 L13.2006923,9.87062503 L17.7477361,9.87062503 L17.7477361,11.8232455 Z M29.4256145,11.8232455 L27.1443911,11.8232455 L26.2119202,8.85259213 L22.0824062,8.85259213 L21.1665866,11.8232455 L18.9353169,11.8232455 L22.8317132,0.174278924 L25.5625208,0.174278924 L29.4256145,11.8232455 Z M25.6649418,6.99157186 L24.1804657,2.22608554 L24.0979948,2.22608554 L22.6300129,6.99157186 L25.6649418,6.99157186 Z M35.1605135,12.0218074 C32.0984386,12.0218074 30.1513583,10.0030028 30.1513583,6.08218389 C30.1513583,2.16136498 32.0984386,-0.0242830066 35.1605135,-0.0242830066 C37.2407274,-0.0242830066 38.588706,0.85998679 39.4041499,2.66189505 L37.5236365,3.6629552 C37.1908023,2.62852638 36.458567,1.92778428 35.1605135,1.92778428 C33.5296258,1.92778428 32.4811979,3.11237212 32.4811979,5.09780808 L32.4811979,6.93308502 C32.4811979,8.93520531 33.5296258,10.0697401 35.1605135,10.0697401 C36.4752087,10.0697401 37.2906525,9.26889202 37.6734119,8.21777887 L39.454075,9.26889202 C38.6219895,11.0040629 37.2407274,12.0218074 35.1605135,12.0218074 Z M48.3970426,11.8232455 L45.0977527,6.54950132 L43.5558735,8.38529834 L43.5558735,11.8232455 L41.3673997,11.8232455 L41.3673997,0.174278924 L43.5558735,0.174278924 L43.5558735,5.91531689 L43.6387702,5.91531689 L45.2801255,3.72904953 L48.1483524,0.174278924 L50.6684131,0.174278924 L46.6396319,5.03079651 L51,11.8232455 L48.3970426,11.8232455 Z" id="BLACK"></path>
            </g>
        </g>
    </g>
</svg>