<?xml version="1.0" encoding="UTF-8"?>
<svg width="73px" height="74px" viewBox="0 0 73 74" version="1.1" xmlns="http://www.w3.org/2000/svg" xmlns:xlink="http://www.w3.org/1999/xlink">
    <!-- Generator: Sketch 60.1 (88133) - https://sketch.com -->
    <title>House</title>
    <desc>Created with Sketch.</desc>
    <g id="House" stroke="none" stroke-width="1" fill="none" fill-rule="evenodd">
        <ellipse id="Oval" fill="#E8E8E8" cx="36.5" cy="37" rx="36.5" ry="37"></ellipse>
        <g id="Group-5" transform="translate(16.000000, 16.000000)" fill="#1A1919">
            <path d="M37.5481614,22 L30.94916,22 L30.94916,32.6795802 C30.94916,34.130945 29.7726958,35.3074092 28.3220234,35.3074092 L22,35.3074092 L22,37.5446992 C22,39.4523853 23.5448449,41 25.453916,41 L37.5481614,41 C39.4530777,41 41,39.4523853 41,37.5446992 L41,25.4553008 C41,23.5455374 39.4530777,22 37.5481614,22" id="Fill-1"></path>
            <path d="M12.6793615,35.3074092 C11.2286891,35.3074092 10.0529174,34.130945 10.0529174,32.6795802 L10.0529174,22 L3.45599329,22 C1.54761471,22 0,23.5455374 0,25.4553008 L0,37.5446992 C0,39.4523853 1.54761471,41 3.45599329,41 L15.5467765,41 C17.4558475,41 19,39.4523853 19,37.5446992 L19,35.3074092 L12.6793615,35.3074092" id="Fill-2"></path>
            <path d="M37.5481614,0 L25.453916,0 C23.5448449,0 22,1.54622982 22,3.45530085 L22,5.10124276 C22.2818251,5.2279602 22.5511863,5.39968658 22.7803856,5.63304056 L33.2508473,16.1000401 C33.4779693,16.3278545 33.6503881,16.5909836 33.7812603,16.8672692 C33.9301359,17.1373228 34.017384,17.444076 34.017384,17.7722949 C34.017384,17.7965305 34.0125369,17.8200736 34.0125369,17.840847 C34.017384,17.8803163 34.0194614,17.9211706 34.0194614,17.9557928 L34.011152,17.9557928 C33.9702978,18.3581034 33.7971865,18.7154051 33.5416743,19 L37.5481614,19 C39.4530777,19 41,17.4530777 41,15.5446992 L41,3.45530085 C41,1.54622982 39.4530777,0 37.5481614,0" id="Fill-3"></path>
            <path d="M6.98192354,17.7722949 C6.98192354,17.4080688 7.08786763,17.0660009 7.26998068,16.781406 C7.39323591,16.5348956 7.55665294,16.3050038 7.76092423,16.1000401 L18.2306935,5.63304056 C18.4598929,5.40453369 18.723022,5.23280732 19,5.1095521 L19,3.45530085 C19,1.54622982 17.4558475,0 15.5467765,0 L3.45599329,0 C1.54761471,0 0,1.54622982 0,3.45530085 L0,15.5446992 C0,17.4530777 1.54761471,19 3.45599329,19 L7.4500164,19 C7.15849703,18.6724735 6.98192354,18.2452349 6.98192354,17.7722949" id="Fill-4"></path>
            <path d="M28.2267866,17.7352764 C27.7151713,17.2453186 27.0748007,17 26.3049935,17 C25.7831596,17 25.2960692,17.1359106 24.8471286,17.4063727 C24.4397439,17.6571278 24.1577083,17.9642857 23.9969344,18.3400785 C23.8388855,17.9642857 23.5568499,17.6571278 23.1521902,17.4063727 C22.7005246,17.1359106 22.2147966,17 21.6875128,17 C20.9197493,17 20.2821037,17.2453186 19.7650385,17.7352764 C19.252742,18.2265932 19,18.8524615 19,19.61492 C19,20.3889308 19.2547857,21.0997433 19.7807071,21.7534733 C19.9353498,21.9233615 20.2514476,22.2610994 20.2514476,22.2610994 L20.5566455,22.6015554 C20.5770829,22.6260193 23.6692554,25.6690577 23.9948907,25.9904863 L23.9948907,26 C23.9948907,25.9972818 23.9969344,25.9932045 23.9969344,25.9932045 C23.9989781,25.9932045 24.0010219,25.9972818 24.0010219,26 L24.0010219,25.9904863 C24.3280196,25.6690577 27.4167859,22.6260193 27.4406295,22.6015554 L27.7431024,22.2610994 C27.7431024,22.2610994 28.0592002,21.9233615 28.2152054,21.7534733 C28.7370393,21.0997433 29,20.3889308 29,19.61492 C29,18.8524615 28.7411268,18.2265932 28.2267866,17.7352764" id="Fill-5"></path>
        </g>
    </g>
</svg>