<?xml version="1.0" encoding="UTF-8"?>
<svg width="27px" height="27px" viewBox="0 0 27 27" version="1.1" xmlns="http://www.w3.org/2000/svg" xmlns:xlink="http://www.w3.org/1999/xlink">
    <!-- Generator: Sketch 59 (86127) - https://sketch.com -->
    <title>Artboard</title>
    <desc>Created with Sketch.</desc>
    <g id="Artboard" stroke="none" stroke-width="1" fill="none" fill-rule="evenodd">
        <g id="Group-2">
            <circle id="Oval" fill="#605E60" cx="13.5" cy="13.5" r="11.5"></circle>
            <g id="Group" transform="translate(1.000000, 9.000000)">
                <path d="M3.06451613,12.8245614 C2.33425885,12.7313454 3.15146315,12.3336845 5.51612903,11.6315789 C7.88079492,10.9294734 11.1496121,7.05228037 15.3225806,0 C15.5268817,8.08187135 16.7526882,13.4152047 19,16 C19.3256069,16.3745039 13.2154594,18.1880902 12,18 C10.7400817,17.8050299 8.74008168,17.1383632 6,16 L3.06451613,12.8245614 Z" id="Rectangle" fill="#D8D8D8"></path>
                <path d="M0,6.56140351 C0.904151319,5.47403542 2.53855992,4.57929858 4.90322581,3.87719298 C7.26789169,3.17508739 10.74101,1.88268973 15.3225806,0 C15.3501281,2.73621313 13.7157195,5.61925407 10.4193548,8.64912281 C7.12299022,11.6789915 4.98320527,13.4626173 4,14 C2.68981048,12.3266134 1.7650793,11.0400637 1.22580645,10.1403509 C0.686533603,9.24063804 0.277931452,8.04765559 0,6.56140351 Z" id="Rectangle" fill="#E8E8E8"></path>
            </g>
            <circle id="Oval" stroke="#B200FD" cx="13.5" cy="13.5" r="13"></circle>
        </g>
    </g>
</svg>